Coordinates
version=1
nRows=26
nColumns=22
inDegrees=yes

Units are S.I. units (second, meters, Newtons, ...)
If the header above contains a line with 'inDegrees', this indicates whether rotational values are in degrees (yes) or radians (no).

endheader
time	pelvis_tilt	pelvis_list	pelvis_rotation	pelvis_tx	pelvis_ty	pelvis_tz	hip_flexion_r	hip_adduction_r	hip_rotation_r	knee_angle_r	ankle_angle_r	subtalar_angle_r	hip_flexion_l	hip_adduction_l	hip_rotation_l	knee_angle_l	ankle_angle_l	subtalar_angle_l	lumbar_extension	lumbar_bending	lumbar_rotation
      3.14000000	     -6.26954853	      0.64534143	    -20.31463477	      1.47663637	      0.98591239	      0.52138282	     20.93348819	      2.19404952	     -2.31631005	    -29.55716733	     18.72967818	     -3.69556880	     22.06750300	      0.36844431	     -2.45030115	    -30.03782184	     17.74349564	      0.30490155	      0.32193838	      0.47156094	      6.19084523
      3.15000000	     -6.43150392	      0.70438382	    -20.54856222	      1.47905465	      0.98633617	      0.52287240	     20.75191095	      2.27783043	     -2.14258616	    -29.17585628	     18.69458476	     -3.64591093	     21.98070459	      0.29537626	     -2.38905359	    -29.91232632	     17.71610465	      0.42424447	      0.48741896	      0.47836533	      6.47610898
      3.16000000	     -6.58579045	      0.76923767	    -20.78190329	      1.48138326	      0.98668179	      0.52430607	     20.58042041	      2.35542602	     -1.96177487	    -28.81560345	     18.68284335	     -3.61361427	     21.86638512	      0.23523393	     -2.33935290	    -29.73941962	     17.75056057	      0.53719284	      0.64005744	      0.47701558	      6.74515328
      3.17000000	     -6.74301181	      0.83956505	    -21.01180017	      1.48360841	      0.98693016	      0.52566452	     20.42876419	      2.42641801	     -1.79289694	    -28.46969114	     18.68906275	     -3.60371591	     21.73268227	      0.18186171	     -2.32193436	    -29.50896738	     17.83575304	      0.62101246	      0.78171418	      0.47631340	      6.98205679
      3.18000000	     -6.90370439	      0.90881072	    -21.24422588	      1.48575625	      0.98707510	      0.52696951	     20.30282991	      2.50070723	     -1.62940727	    -28.15787297	     18.71498026	     -3.61843186	     21.56783781	      0.12529053	     -2.35392508	    -29.20760199	     17.96919188	      0.66863253	      0.91929042	      0.48412088	      7.18591614
      3.19000000	     -7.07165143	      0.98228256	    -21.46812526	      1.48782267	      0.98710764	      0.52819864	     20.20094710	      2.57250571	     -1.46735333	    -27.86539878	     18.76024187	     -3.65467082	     21.38796430	      0.07526662	     -2.42459286	    -28.85234042	     18.15164696	      0.67053980	      1.05687756	      0.49517825	      7.36042872
      3.20000000	     -7.23371482	      1.05951809	    -21.69937449	      1.48983370	      0.98704936	      0.52937655	     20.10395153	      2.63912168	     -1.30386232	    -27.58104696	     18.81835585	     -3.72516931	     21.18005338	      0.02140312	     -2.60292294	    -28.44868308	     18.36800749	      0.61162916	      1.18316742	      0.50536616	      7.53485362
      3.21000000	     -7.40605752	      1.13856824	    -21.92400135	      1.49177387	      0.98687447	      0.53047348	     20.04473289	      2.70615506	     -1.14041179	    -27.33876914	     18.89568173	     -3.81547341	     20.95491364	     -0.02809403	     -2.82210335	    -27.98216653	     18.62564600	      0.49478608	      1.31374984	      0.52642275	      7.67108231
      3.22000000	     -7.58679876	      1.22274413	    -22.14654917	      1.49365525	      0.98659254	      0.53151168	     20.01863826	      2.76930845	     -0.98052736	    -27.13128260	     18.99034173	     -3.91647320	     20.71954524	     -0.07682005	     -3.10424306	    -27.46961653	     18.91267854	      0.33123527	      1.45205768	      0.55054939	      7.78613299
      3.23000000	     -7.76979830	      1.31353315	    -22.36207179	      1.49547253	      0.98622620	      0.53246249	     20.02221226	      2.82436314	     -0.81778667	    -26.96108511	     19.09725770	     -4.02761549	     20.47473092	     -0.11549214	     -3.43516121	    -26.91797562	     19.21202794	      0.12515499	      1.58773863	      0.57719800	      7.88021918
      3.24000000	     -7.95317371	      1.41148634	    -22.56876590	      1.49722621	      0.98578875	      0.53333964	     20.05566609	      2.86899339	     -0.65633590	    -26.83189234	     19.21477521	     -4.14103989	     20.22419889	     -0.14401437	     -3.80049236	    -26.33755795	     19.51499921	     -0.10548232	      1.72199966	      0.59980574	      7.95073015
      3.25000000	     -8.13233576	      1.51926127	    -22.76762806	      1.49891255	      0.98530745	      0.53413778	     20.11765435	      2.89817227	     -0.49708936	    -26.74625639	     19.34008022	     -4.25029715	     19.97330463	     -0.15730338	     -4.18661741	    -25.74298431	     19.80960616	     -0.34212900	      1.84969881	      0.61627446	      7.99864709
      3.26000000	     -8.30351754	      1.63664291	    -22.94930107	      1.50053498	      0.98481185	      0.53484760	     20.20106883	      2.90841143	     -0.34583417	    -26.69728765	     19.46502116	     -4.35116288	     19.72593031	     -0.15133823	     -4.57524574	    -25.14590487	     20.07571534	     -0.57167501	      1.96829209	      0.62131881	      8.01840111
      3.27000000	     -8.46249465	      1.76412086	    -23.11455097	      1.50207818	      0.98432818	      0.53548250	     20.30264584	      2.89841616	     -0.20063737	    -26.68563907	     19.58571555	     -4.44144523	     19.48509964	     -0.12614332	     -4.95442310	    -24.55759440	     20.30529540	     -0.78520142	      2.07150401	      0.60971833	      8.01072668
      3.28000000	     -8.60877519	      1.90009019	    -23.25837785	      1.50353296	      0.98387604	      0.53604701	     20.41938660	      2.86800955	     -0.07129144	    -26.70625405	     19.70040169	     -4.51333069	     19.25820579	     -0.08259520	     -5.30904635	    -23.99168062	     20.49812178	     -0.95642234	      2.15847601	      0.57924248	      7.97457722
      3.29000000	     -8.74587959	      2.03782888	    -23.37113894	      1.50489521	      0.98347258	      0.53653148	     20.54885915	      2.82131002	      0.03293818	    -26.75396897	     19.79569916	     -4.55853017	     19.05327765	     -0.02401288	     -5.60424529	    -23.45977325	     20.67870130	     -1.05411295	      2.22822189	      0.53849020	      7.88918534
      3.30000000	     -8.86513888	      2.18719053	    -23.46903081	      1.50617366	      0.98315062	      0.53698418	     20.67717522	      2.75237023	      0.12914092	    -26.81010739	     19.87976850	     -4.59421470	     18.86099394	      0.04993365	     -5.90106869	    -22.95705683	     20.76347469	     -1.13572697	      2.28278126	      0.46799522	      7.80054795
      3.31000000	     -8.97626492	      2.32800672	    -23.53580648	      1.50736578	      0.98291089	      0.53738654	     20.79811507	      2.67744111	      0.19216432	    -26.86222842	     19.94043808	     -4.61145042	     18.69170808	      0.12539706	     -6.14377762	    -22.49813762	     20.80977915	     -1.17596736	      2.32023526	      0.39430322	      7.67521850
      3.32000000	     -9.08114048	      2.46203543	    -23.57724217	      1.50847474	      0.98275158	      0.53777112	     20.90903738	      2.59920282	      0.22966424	    -26.90321018	     19.98287893	     -4.61096224	     18.54460439	      0.19989660	     -6.34255083	    -22.07921224	     20.81558570	     -1.17687866	      2.34669961	      0.31196951	      7.52513623
      3.33000000	     -9.18321259	      2.58324129	    -23.59143006	      1.50952597	      0.98266637	      0.53810721	     21.00542129	      2.52219335	      0.24590885	    -26.92547475	     20.00327228	     -4.59416169	     18.41975775	      0.27133067	     -6.49248392	    -21.70160999	     20.79427749	     -1.14294056	      2.36420088	      0.23804370	      7.35340906
      3.34000000	     -9.28525926	      2.68861564	    -23.58410294	      1.51053581	      0.98264763	      0.53843824	     21.08019348	      2.45435000	      0.24377466	    -26.91656969	     20.00809899	     -4.56349513	     18.31232871	      0.33222818	     -6.60066660	    -21.35842325	     20.75119484	     -1.08415823	      2.37989255	      0.17045559	      7.16762913
      3.35000000	     -9.38698789	      2.77647995	    -23.55927133	      1.51153960	      0.98268182	      0.53875042	     21.12793493	      2.39671062	      0.23083200	    -26.87288832	     20.00335128	     -4.52003767	     18.21541936	      0.38350054	     -6.67193671	    -21.04328769	     20.69525211	     -1.00753499	      2.39590423	      0.11786195	      6.97791196
      3.36000000	     -9.48754494	      2.84394752	    -23.52343626	      1.51256333	      0.98275677	      0.53905265	     21.14225073	      2.35422290	      0.21528493	    -26.78909293	     19.99278766	     -4.46644260	     18.12092032	      0.42180888	     -6.71420532	    -20.74999047	     20.63759065	     -0.92259468	      2.41376754	      0.08508665	      6.79301486
      3.37000000	     -9.58458461	      2.89017471	    -23.48671445	      1.51362294	      0.98286285	      0.53936338	     21.11975257	      2.33087161	      0.20758651	    -26.66597808	     19.97999236	     -4.40942924	     18.02061640	      0.44467789	     -6.73655791	    -20.47272909	     20.58571838	     -0.84233360	      2.43452778	      0.07203456	      6.62426443
      3.38000000	     -9.68726491	      2.92432068	    -23.45342194	      1.51473558	      0.98296082	      0.53967890	     21.06685086	      2.32535311	      0.22933611	    -26.49250814	     19.97035322	     -4.36828510	     17.92779853	      0.45532210	     -6.75409809	    -20.21699831	     20.55396679	     -0.79160303	      2.47536609	      0.07615578	      6.48961597
      3.39000000	     -9.73225086	      2.92141580	    -23.43133638	      1.51596068	      0.98316076	      0.53998682	     20.92254221	      2.32494997	      0.22835501	    -26.29678100	     19.96668764	     -4.28393735	     17.74280600	      0.46026313	     -6.77039511	    -19.93480329	     20.51334249	     -0.69949721	      2.45557689	      0.10532445	      6.37373385
